<svg width="11" height="8" viewBox="0 0 11 8" fill="none" xmlns="http://www.w3.org/2000/svg">
<path d="M9.97636 6.81077L5.48041 1.14299C5.43866 1.0903 5.38907 1.04849 5.33449 1.01997C5.27991 0.991446 5.22141 0.976766 5.16233 0.976766C5.10324 0.976766 5.04474 0.991446 4.99016 1.01997C4.93558 1.04849 4.88599 1.0903 4.84424 1.14299L0.348291 6.81077C0.285343 6.89004 0.242466 6.99107 0.225089 7.10108C0.207712 7.21108 0.216616 7.32511 0.250674 7.42873C0.284732 7.53235 0.342412 7.6209 0.416413 7.68317C0.490413 7.74544 0.577407 7.77864 0.666379 7.77855H9.65827C9.74724 7.77864 9.83424 7.74544 9.90824 7.68317C9.98224 7.6209 10.0399 7.53235 10.074 7.42873C10.108 7.32511 10.1169 7.21108 10.0996 7.10108C10.0822 6.99107 10.0393 6.89004 9.97636 6.81077Z" fill="white" fill-opacity="0.75"/>
</svg>
