<svg width="30" height="27" viewBox="0 0 30 27" fill="none" xmlns="http://www.w3.org/2000/svg">
<path d="M30 13.5C30 13.8978 29.8683 14.2794 29.6339 14.5607C29.3995 14.842 29.0815 15 28.75 15H1.25C0.918479 15 0.600537 14.842 0.366117 14.5607C0.131696 14.2794 0 13.8978 0 13.5C0 13.1022 0.131696 12.7206 0.366117 12.4393C0.600537 12.158 0.918479 12 1.25 12H28.75C29.0815 12 29.3995 12.158 29.6339 12.4393C29.8683 12.7206 30 13.1022 30 13.5ZM1.25 3H28.75C29.0815 3 29.3995 2.84196 29.6339 2.56066C29.8683 2.27936 30 1.89782 30 1.5C30 1.10218 29.8683 0.720645 29.6339 0.43934C29.3995 0.158036 29.0815 0 28.75 0H1.25C0.918479 0 0.600537 0.158036 0.366117 0.43934C0.131696 0.720645 0 1.10218 0 1.5C0 1.89782 0.131696 2.27936 0.366117 2.56066C0.600537 2.84196 0.918479 3 1.25 3ZM28.75 24H1.25C0.918479 24 0.600537 24.158 0.366117 24.4393C0.131696 24.7206 0 25.1022 0 25.5C0 25.8978 0.131696 26.2794 0.366117 26.5607C0.600537 26.842 0.918479 27 1.25 27H28.75C29.0815 27 29.3995 26.842 29.6339 26.5607C29.8683 26.2794 30 25.8978 30 25.5C30 25.1022 29.8683 24.7206 29.6339 24.4393C29.3995 24.158 29.0815 24 28.75 24Z" fill="white"/>
</svg>
