<svg width="26" height="29" viewBox="0 0 26 29" fill="none" xmlns="http://www.w3.org/2000/svg">
<path d="M25.086 26.1598C22.4615 24.7903 20.9562 21.8545 20.9562 18.0921V15.9407C20.9572 15.5415 20.8457 15.1514 20.6363 14.8211C20.4269 14.4908 20.1293 14.2358 19.7824 14.0893L16.8845 12.8617C16.6565 12.7641 16.4738 12.5741 16.3762 12.3329C16.2786 12.0918 16.2739 11.8191 16.3633 11.5744L18.8436 4.97574C19.0119 4.54264 19.0968 4.07765 19.0932 3.6086C19.0897 3.13954 18.9977 2.67609 18.8228 2.24598C18.648 1.81586 18.3938 1.42795 18.0755 1.10545C17.7572 0.782959 17.3814 0.532523 16.9706 0.369142C16.1704 0.0553511 15.2874 0.0879079 14.5092 0.459893C13.7311 0.831877 13.1192 1.51396 12.8035 2.36118C12.8031 2.36615 12.8031 2.37116 12.8035 2.37612L10.3582 9.00215C10.2672 9.24728 10.0892 9.44381 9.863 9.5486C9.63684 9.6534 9.38108 9.65792 9.15181 9.56117L6.19461 8.27256C5.85366 8.1247 5.47923 8.08908 5.11925 8.17026C4.75927 8.25144 4.43011 8.44572 4.1739 8.72824C1.72391 11.4237 0.481469 14.5736 0.481469 18.0908C0.475031 21.6901 1.77565 25.1512 4.10875 27.7435C4.19616 27.8413 4.30128 27.919 4.41769 27.9719C4.5341 28.0248 4.65935 28.0517 4.78581 28.051H24.6788C24.8892 28.0508 25.0933 27.9744 25.2578 27.8341C25.4223 27.6938 25.5376 27.498 25.5849 27.2787C25.6321 27.0593 25.6085 26.8293 25.5179 26.6261C25.4273 26.4229 25.2751 26.2586 25.086 26.1598ZM5.5001 10.1227L8.45614 11.405C8.79735 11.5511 9.16216 11.6237 9.52964 11.6186C9.89712 11.6134 10.26 11.5307 10.5976 11.3751C10.9351 11.2196 11.2406 10.9942 11.4966 10.712C11.7526 10.4297 11.954 10.0962 12.0892 9.73049L14.5322 3.13185C14.8301 2.37114 15.6339 1.97771 16.3273 2.26034C16.504 2.33053 16.6657 2.43831 16.8025 2.57719C16.9392 2.71606 17.0483 2.88315 17.1231 3.06838C17.1979 3.2536 17.2369 3.45312 17.2376 3.6549C17.2384 3.85668 17.201 4.05654 17.1276 4.24242L14.6381 10.8398C14.3655 11.5757 14.377 12.3973 14.6699 13.1242C14.9628 13.8511 15.5133 14.4239 16.2005 14.7168L19.0948 15.9407V18.0908C19.0948 18.1319 19.0948 18.173 19.0948 18.2153L4.17739 11.8296C4.57398 11.2229 5.01636 10.652 5.5001 10.1227ZM11.0841 26.059C9.69848 24.6365 8.71688 22.8238 8.25255 20.8299C8.18784 20.5777 8.03305 20.3629 7.8216 20.2318C7.61015 20.1007 7.35901 20.0639 7.12241 20.1293C6.88581 20.1947 6.68273 20.357 6.55703 20.5813C6.43132 20.8055 6.39307 21.0737 6.45054 21.3279C6.85647 23.0432 7.58306 24.6526 8.58643 26.059H5.186C3.35047 23.8704 2.33756 21.0317 2.34281 18.0908C2.33142 16.5326 2.63833 14.9906 3.24206 13.5726L19.2728 20.4352C19.6218 22.6763 20.5013 24.6036 21.8194 26.0578L11.0841 26.059Z" fill="white"/>
</svg>
